<svg width="100" height="100" viewBox="0 0 100 100" fill="none" xmlns="http://www.w3.org/2000/svg">
<path d="M8.74228e-06 100C9.89033e-06 86.8678 2.58659 73.8642 7.61206 61.7316C12.6375 49.5991 20.0035 38.5752 29.2893 29.2893C38.5752 20.0034 49.5991 12.6375 61.7317 7.61203C73.8642 2.58657 86.8678 -9.89033e-06 100 -8.74228e-06L100 50C93.4339 50 86.9321 51.2933 80.8658 53.806C74.7996 56.3187 69.2876 60.0017 64.6447 64.6446C60.0018 69.2876 56.3188 74.7995 53.806 80.8658C51.2933 86.9321 50 93.4339 50 100L8.74228e-06 100Z" fill="#9818FC"/>
</svg>
