<svg width="200" height="100" viewBox="0 0 200 100" fill="none" xmlns="http://www.w3.org/2000/svg">
<path d="M8.74228e-06 100C9.89033e-06 86.8678 2.58659 73.8642 7.61206 61.7316C12.6375 49.5991 20.0035 38.5752 29.2893 29.2893C38.5752 20.0034 49.5991 12.6375 61.7317 7.61203C73.8642 2.58657 86.8678 -9.89033e-06 100 -8.74228e-06C113.132 -7.59422e-06 126.136 2.58657 138.268 7.61204C150.401 12.6375 161.425 20.0035 170.711 29.2893C179.997 38.5752 187.362 49.5991 192.388 61.7317C197.413 73.8642 200 86.8678 200 100L150 100C150 93.4339 148.707 86.9321 146.194 80.8658C143.681 74.7995 139.998 69.2876 135.355 64.6447C130.712 60.0017 125.2 56.3187 119.134 53.806C113.068 51.2933 106.566 50 100 50C93.4339 50 86.9321 51.2933 80.8658 53.806C74.7996 56.3187 69.2876 60.0017 64.6447 64.6446C60.0018 69.2876 56.3188 74.7995 53.806 80.8658C51.2933 86.9321 50 93.4339 50 100L8.74228e-06 100Z" fill="white"/>
</svg>
