<svg width="1200" height="870" viewBox="0 0 1200 870" fill="none" xmlns="http://www.w3.org/2000/svg">
<path d="M900 300V400H800L900 300Z" fill="#3B8E34"/>
<rect x="1100" y="600" width="100" height="100" fill="#3B8E34"/>
<rect x="1000" y="700" width="100" height="100" fill="#3B8E34"/>
<path d="M1100 700L1200 800H1100V700Z" fill="#3B8E34"/>
<path d="M1000 200V300H900L1000 200Z" fill="#3B8E34"/>
<path d="M800.5 699.5H900.5V799.5H800.5V699.5Z" fill="#3B8E34"/>
<rect x="1100" y="200" width="100" height="100" fill="#3B8E34"/>
<path d="M900 300H1000V400H900V300Z" fill="#3B8E34"/>
<rect x="999" y="296.5" width="100" height="100" fill="#3B8E34"/>
<path d="M999.5 599.5H1099.5V699.5L999.5 599.5Z" fill="#3B8E34"/>
<path d="M638.533 708.607C646.363 700.816 659.058 700.816 666.888 708.607L709.244 750.75C717.074 758.541 717.074 771.173 709.244 778.964L693.939 794.193C690.178 797.934 685.079 800.036 679.761 800.036L652.711 800.036L625.66 800.036C620.343 800.036 615.243 797.934 611.483 794.193L596.178 778.964C588.348 771.173 588.348 758.541 596.178 750.75L638.533 708.607Z" fill="#F57EDB"/>
<rect width="50" height="50" rx="10" transform="matrix(0.708877 0.705332 -0.708877 0.705332 753.355 309.435)" fill="#F57EDB"/>
<path d="M1103.37 450.33C1121.52 469.225 1135.74 491.49 1145.24 515.856C1154.74 540.221 1159.32 566.208 1158.72 592.335C1158.12 618.461 1152.36 644.214 1141.76 668.124C1131.16 692.034 1115.93 713.632 1096.94 731.686C1077.95 749.739 1055.57 763.895 1031.08 773.343C1006.59 782.792 980.475 787.349 954.218 786.754C927.96 786.159 902.077 780.424 878.047 769.877C854.017 759.329 832.31 744.176 814.166 725.281L886.468 656.543C895.54 665.991 906.393 673.567 918.408 678.841C930.423 684.115 943.365 686.982 956.494 687.28C969.622 687.577 982.682 685.299 994.925 680.574C1007.17 675.85 1018.36 668.773 1027.85 659.746C1037.35 650.719 1044.96 639.92 1050.26 627.965C1055.56 616.01 1058.44 603.133 1058.74 590.07C1059.04 577.007 1056.75 564.013 1052 551.831C1047.26 539.648 1040.14 528.515 1031.07 519.068L1103.37 450.33Z" fill="#9818FC"/>
<path d="M1200 398C1173.74 398 1147.73 392.853 1123.46 382.852C1099.2 372.851 1077.15 358.193 1058.58 339.714C1040.01 321.235 1025.28 299.298 1015.22 275.154C1005.17 251.01 1000 225.133 1000 199C1000 172.867 1005.17 146.99 1015.22 122.846C1025.28 98.7022 1040.01 76.7646 1058.58 58.2857C1077.15 39.8069 1099.2 25.1487 1123.46 15.148C1147.73 5.14729 1173.74 4.13552e-07 1200 2.38498e-06L1200 99.5C1186.87 99.5 1173.86 102.074 1161.73 107.074C1149.6 112.074 1138.58 119.403 1129.29 128.643C1120 137.882 1112.64 148.851 1107.61 160.923C1102.59 172.995 1100 185.933 1100 199C1100 212.067 1102.59 225.005 1107.61 237.077C1112.64 249.149 1120 260.118 1129.29 269.357C1138.58 278.597 1149.6 285.926 1161.73 290.926C1173.86 295.926 1186.87 298.5 1200 298.5L1200 398Z" fill="#F57EDB"/>
<rect width="199.501" height="199.501" rx="40" transform="matrix(0.708877 0.705332 -0.708877 0.705332 999 259.685)" fill="#F6E96D"/>
<path d="M1099 200L1099 300L1000 200L1099 200Z" fill="#9818FC"/>
<path d="M1099 200L1099 100L1000 200L1099 200Z" fill="#9818FC"/>
<path d="M602 345.962L672.711 275.605V416.319L602 345.962Z" fill="#F7E96D"/>
<path d="M600 500H700V600H600V500Z" fill="#F57EDB"/>
<path d="M900 500H1000V599.5H900V500Z" fill="#F57EDB"/>
<rect x="700" y="400" width="100" height="10" fill="#9818FC"/>
<rect x="700" y="416.25" width="100" height="10" fill="#9818FC"/>
<rect x="700" y="432.5" width="100" height="10" fill="#9818FC"/>
<rect x="700" y="448.75" width="100" height="10" fill="#9818FC"/>
<rect x="700" y="465" width="100" height="10" fill="#9818FC"/>
<rect x="700" y="481.25" width="100" height="10" fill="#9818FC"/>
<rect x="791.25" y="600" width="96.515" height="10" transform="rotate(90 791.25 600)" fill="#9818FC"/>
<rect x="775" y="600" width="96.515" height="10" transform="rotate(90 775 600)" fill="#9818FC"/>
<rect x="758.75" y="600" width="96.515" height="10" transform="rotate(90 758.75 600)" fill="#9818FC"/>
<rect x="742.5" y="600" width="96.515" height="10" transform="rotate(90 742.5 600)" fill="#9818FC"/>
<rect x="726.25" y="600" width="96.515" height="10" transform="rotate(90 726.25 600)" fill="#9818FC"/>
<rect x="710" y="600" width="96.515" height="10" transform="rotate(90 710 600)" fill="#9818FC"/>
<path d="M829.998 399.692C843.258 399.641 855.996 404.86 865.409 414.201C874.823 423.542 880.14 436.239 880.191 449.5C880.242 462.76 875.024 475.498 865.683 484.911C856.343 494.324 843.646 499.64 830.385 499.691L830.288 474.691C836.919 474.666 843.267 472.007 847.937 467.301C852.608 462.595 855.217 456.226 855.191 449.596C855.165 442.965 852.507 436.616 847.8 431.946C843.094 427.276 836.725 424.666 830.095 424.692L829.998 399.692Z" fill="#F57EDB"/>
<path d="M865 600.495C851.739 600.495 839.021 595.227 829.645 585.85C820.268 576.474 815 563.756 815 550.495C815 537.234 820.268 524.516 829.645 515.14C839.021 505.763 851.739 500.495 865 500.495L865 525.495C858.37 525.495 852.011 528.129 847.322 532.817C842.634 537.506 840 543.865 840 550.495C840 557.125 842.634 563.484 847.322 568.173C852.011 572.861 858.37 575.495 865 575.495L865 600.495Z" fill="#3B8E34"/>
<path d="M800.183 499.75C800.232 512.944 795.01 525.617 785.668 534.981C776.326 544.346 763.627 549.633 750.367 549.682C737.106 549.73 724.369 544.535 714.958 535.24C705.547 525.944 700.232 513.309 700.184 500.115L725.183 500.024C725.208 506.621 727.865 512.938 732.571 517.586C737.276 522.234 743.645 524.831 750.275 524.807C756.905 524.783 763.254 522.139 767.926 517.457C772.597 512.775 775.207 506.438 775.183 499.841L800.183 499.75Z" fill="#9818FC"/>
<path d="M699 595.995C699 582.8 704.268 570.146 713.645 560.816C723.021 551.487 735.739 546.245 749 546.245C762.261 546.245 774.979 551.486 784.355 560.816C793.732 570.146 799 582.8 799 595.995L774 595.995C774 589.398 771.366 583.071 766.678 578.406C761.989 573.741 755.63 571.12 749 571.12C742.37 571.12 736.011 573.741 731.322 578.406C726.634 583.071 724 589.398 724 595.995L699 595.995Z" fill="#3B8E34"/>
<path d="M741.238 577.239L907.522 625.469L782.402 744.64L741.238 577.239Z" fill="#F7E96D"/>
</svg>
