<svg width="1200" height="700" viewBox="0 0 1200 700" fill="none" xmlns="http://www.w3.org/2000/svg">
<rect x="-100" y="-100" width="200" height="199" fill="#F57EDB"/>
<rect x="300" y="-95" width="200" height="199" fill="#F57EDB"/>
<path d="M100 99L300 298H100V99Z" fill="#F57EDB"/>
<path d="M-100 303H100L-100 502V303Z" fill="#F57EDB"/>
<rect x="300" y="301" width="200" height="199" fill="#F57EDB"/>
<path d="M100 700C100 673.478 110.536 648.043 129.289 629.289C148.043 610.536 173.478 600 200 600C226.522 600 251.957 610.536 270.711 629.289C289.464 648.043 300 673.478 300 700L250 700C250 686.739 244.732 674.021 235.355 664.645C225.979 655.268 213.261 650 200 650C186.739 650 174.021 655.268 164.645 664.645C155.268 674.021 150 686.739 150 700L100 700Z" fill="white"/>
<rect x="100" y="200" width="200" height="200" fill="#3B8E34"/>
<path d="M-1.31134e-05 146C39.7825 146 77.9355 161.804 106.066 189.934C134.196 218.064 150 256.218 150 296C150 335.782 134.196 373.936 106.066 402.066C77.9356 430.196 39.7825 446 1.52588e-05 446L1.19804e-05 371C19.8912 371 38.9678 363.098 53.033 349.033C67.0982 334.968 75 315.891 75 296C75 276.109 67.0982 257.032 53.033 242.967C38.9678 228.902 19.8912 221 -9.83506e-06 221L-1.31134e-05 146Z" fill="white"/>
<path d="M306 500C292.868 500 279.864 497.413 267.732 492.388C255.599 487.362 244.575 479.997 235.289 470.711C226.003 461.425 218.638 450.401 213.612 438.268C208.587 426.136 206 413.132 206 400L256 400C256 406.566 257.293 413.068 259.806 419.134C262.319 425.2 266.002 430.712 270.645 435.355C275.288 439.998 280.8 443.681 286.866 446.194C292.932 448.707 299.434 450 306 450L306 500Z" fill="#F7E96D"/>
<path d="M600 0C600 53.0433 578.929 103.914 541.421 141.421C503.914 178.929 453.043 200 400 200C346.957 200 296.086 178.929 258.579 141.421C221.071 103.914 200 53.0433 200 3.05176e-05L300 1.52588e-05C300 26.5217 310.536 51.957 329.289 70.7107C348.043 89.4643 373.478 100 400 100C426.522 100 451.957 89.4643 470.711 70.7107C489.464 51.957 500 26.5217 500 0L600 0Z" fill="white"/>
<rect x="400" y="500" width="100" height="100" fill="#3B8E34"/>
<rect x="309" y="450" width="50" height="50" fill="#F7E96D"/>
<rect x="309" y="301" width="50" height="50" fill="#F7E96D"/>
<path d="M647 349C647 376.614 625.957 399 600 399C574.043 399 553 376.614 553 349C553 321.386 574.043 299 600 299C625.957 299 647 321.386 647 349ZM576.5 349C576.5 362.807 587.021 374 600 374C612.979 374 623.5 362.807 623.5 349C623.5 335.193 612.979 324 600 324C587.021 324 576.5 335.193 576.5 349Z" fill="#F7E96D"/>
<rect x="400" y="202" width="50" height="10" fill="#F7E96D"/>
<rect x="450" y="217" width="50" height="10" fill="#F7E96D"/>
<rect x="400" y="228" width="50" height="10" fill="#F7E96D"/>
<rect x="450" y="238" width="50" height="10" fill="#F7E96D"/>
<rect x="450" y="258" width="50" height="10" fill="#F7E96D"/>
<rect x="450" y="278" width="50" height="10" fill="#F7E96D"/>
<rect x="450" y="298" width="50" height="10" fill="#F7E96D"/>
<rect x="450" y="318" width="50" height="10" fill="#F7E96D"/>
<rect x="450" y="341" width="50" height="10" fill="#F7E96D"/>
<rect x="450" y="364" width="50" height="10" fill="#F7E96D"/>
<rect x="450" y="387" width="50" height="10" fill="#F7E96D"/>
<rect x="450" y="410" width="50" height="10" fill="#F7E96D"/>
<rect x="450" y="433" width="50" height="10" fill="#F7E96D"/>
<rect x="450" y="456" width="50" height="10" fill="#F7E96D"/>
<rect x="450" y="479" width="50" height="10" fill="#F7E96D"/>
<rect x="400" y="250" width="50" height="10" fill="#F7E96D"/>
<rect x="400" y="270" width="50" height="10" fill="#F7E96D"/>
<rect x="400" y="290" width="50" height="10" fill="#F7E96D"/>
<rect x="400" y="310" width="50" height="10" fill="#F7E96D"/>
<rect x="400" y="330" width="50" height="10" fill="#F7E96D"/>
<rect x="400" y="353" width="50" height="10" fill="#F7E96D"/>
<rect x="400" y="376" width="50" height="10" fill="#F7E96D"/>
<rect x="400" y="399" width="50" height="10" fill="#F7E96D"/>
<rect x="400" y="422" width="50" height="10" fill="#F7E96D"/>
<rect x="400" y="445" width="50" height="10" fill="#F7E96D"/>
<rect x="400" y="468" width="50" height="10" fill="#F7E96D"/>
<rect x="400" y="491" width="50" height="10" fill="#F7E96D"/>
<path d="M550 250L500 250L500 200L550 250Z" fill="#3B8E34"/>
<path d="M606 250L556 250L556 200L606 250Z" fill="#3B8E34"/>
<path d="M550 300L500 300L500 250L550 300Z" fill="#3B8E34"/>
</svg>
