<svg width="26" height="26" viewBox="0 0 26 26" fill="none" xmlns="http://www.w3.org/2000/svg">
<path d="M13.9935 2.16675C11.8509 2.16675 9.75635 2.80211 7.97482 3.99249C6.19328 5.18288 4.80475 6.87481 3.9848 8.85434C3.16485 10.8339 2.95031 13.0121 3.36832 15.1136C3.78633 17.215 4.8181 19.1453 6.33317 20.6604C7.84824 22.1755 9.77855 23.2073 11.88 23.6253C13.9815 24.0433 16.1597 23.8287 18.1392 23.0088C20.1188 22.1888 21.8107 20.8003 23.0011 19.0188C24.1915 17.2372 24.8268 15.1427 24.8268 13.0001C24.8268 11.5774 24.5466 10.1687 24.0022 8.85434C23.4578 7.53998 22.6598 6.34573 21.6538 5.33976C20.6479 4.33379 19.4536 3.53581 18.1392 2.99139C16.8249 2.44696 15.4161 2.16675 13.9935 2.16675ZM17.4385 18.5814C17.3981 18.6826 17.3364 18.774 17.2578 18.8494C17.1791 18.9248 17.0852 18.9826 16.9824 19.0187C16.8795 19.0548 16.7702 19.0685 16.6616 19.0589C16.5531 19.0492 16.4478 19.0164 16.353 18.9627L13.4117 16.6769L11.5246 18.4189C11.4808 18.4513 11.4295 18.4721 11.3756 18.4795C11.3216 18.4868 11.2667 18.4806 11.2158 18.4612L11.5777 15.2231L11.5885 15.2328L11.5961 15.1689C11.5961 15.1689 16.8882 10.3502 17.1037 10.1455C17.3226 9.94075 17.25 9.89633 17.25 9.89633C17.263 9.64717 16.8589 9.89633 16.8589 9.89633L9.8465 14.4073L6.92691 13.4128C6.92691 13.4128 6.47841 13.2525 6.43616 12.8982C6.39174 12.5472 6.94099 12.3566 6.94099 12.3566L18.5511 7.74375C18.5511 7.74375 19.5055 7.31908 19.5055 8.02325L17.4385 18.5814Z" fill="white"/>
</svg>
