<svg width="20" height="22" viewBox="0 0 20 22" fill="none" xmlns="http://www.w3.org/2000/svg">
<path d="M10 0.0268555C15.523 0.0268555 20 4.93954 20 11C20 17.0605 15.523 21.9732 10 21.9732C8.23277 21.9765 6.4966 21.4633 4.97002 20.4863L0.00401546 21.9732L1.35602 16.5217C0.464974 14.846 -0.00308163 12.9401 1.52687e-05 11C1.52687e-05 4.93954 4.47702 0.0268555 10 0.0268555ZM6.59202 5.84263L6.39201 5.85141C6.26271 5.86118 6.13636 5.89845 6.02002 5.96114C5.91159 6.02863 5.81258 6.11289 5.72602 6.21133C5.60602 6.33532 5.53802 6.44286 5.46502 6.5471C5.09514 7.07481 4.89599 7.72267 4.89902 8.3884C4.90102 8.92608 5.02902 9.4495 5.22902 9.93891C5.63802 10.9287 6.31102 11.9766 7.19902 12.9477C7.41302 13.1815 7.62302 13.4163 7.84902 13.6347C8.95245 14.7006 10.2673 15.4693 11.689 15.8798L12.257 15.9752C12.442 15.9862 12.627 15.9708 12.813 15.961C13.1042 15.9441 13.3885 15.8576 13.646 15.7075C13.7769 15.6333 13.9047 15.5527 14.029 15.4661C14.029 15.4661 14.0714 15.4346 14.154 15.3673C14.289 15.2576 14.372 15.1797 14.484 15.0513C14.568 14.9562 14.638 14.8457 14.694 14.7199C14.772 14.541 14.85 14.1998 14.882 13.9156C14.906 13.6983 14.899 13.5798 14.896 13.5063C14.892 13.3889 14.803 13.2671 14.706 13.2155L14.124 12.9291C14.124 12.9291 13.254 12.5132 12.722 12.2477C12.6663 12.2211 12.6067 12.2058 12.546 12.2027C12.4776 12.1948 12.4084 12.2032 12.3432 12.2272C12.278 12.2513 12.2182 12.2904 12.168 12.342C12.163 12.3398 12.096 12.4024 11.373 13.3636C11.3315 13.4248 11.2744 13.4711 11.2088 13.4965C11.1433 13.5219 11.0723 13.5253 11.005 13.5063C10.9398 13.4872 10.876 13.463 10.814 13.4339C10.69 13.3768 10.647 13.3548 10.562 13.3153C9.98789 13.0409 9.45646 12.6696 8.98702 12.2147C8.86102 12.094 8.74402 11.9624 8.62402 11.8351C8.23063 11.4216 7.88777 10.9539 7.60401 10.4437L7.54501 10.3394C7.50328 10.269 7.46905 10.1935 7.44302 10.1145C7.40502 9.95317 7.50402 9.82369 7.50402 9.82369C7.50402 9.82369 7.74702 9.5318 7.86002 9.37379C7.97002 9.22016 8.06301 9.07093 8.12302 8.96449C8.24102 8.756 8.27802 8.54202 8.21602 8.37633C7.93602 7.62576 7.64668 6.87922 7.34802 6.13671C7.28902 5.98967 7.11402 5.88433 6.95502 5.86348C6.90102 5.85616 6.84701 5.85031 6.79302 5.84592C6.65874 5.83747 6.52411 5.83893 6.39002 5.85031L6.59202 5.84263Z" fill="white"/>
</svg>
