<svg width="1200" height="700" viewBox="0 0 1200 700" fill="none" xmlns="http://www.w3.org/2000/svg">
<rect x="1099" y="600" width="101" height="102" fill="#F57EDB"/>
<path d="M799 600H900V702L799 600Z" fill="#F57EDB"/>
<rect x="401" y="600" width="101" height="102" fill="#F57EDB"/>
<path d="M200 576L320 697H200V576Z" fill="#F57EDB"/>
<path d="M622 300.5C622 312.374 612.374 322 600.5 322C588.626 322 579 312.374 579 300.5C579 288.626 588.626 279 600.5 279C612.374 279 622 288.626 622 300.5ZM589.75 300.5C589.75 306.437 594.563 311.25 600.5 311.25C606.437 311.25 611.25 306.437 611.25 300.5C611.25 294.563 606.437 289.75 600.5 289.75C594.563 289.75 589.75 294.563 589.75 300.5Z" fill="#3B8E34"/>
<path d="M323.421 699.711H182L252.711 629L323.421 699.711Z" fill="#3B8E34"/>
<rect x="401" y="600" width="100" height="10" fill="#F7E96D"/>
<rect x="401" y="620" width="100" height="10" fill="#F7E96D"/>
<rect x="401" y="640" width="100" height="10" fill="#F7E96D"/>
<rect x="401" y="660" width="100" height="10" fill="#F7E96D"/>
<rect x="401" y="680" width="100" height="10" fill="#F7E96D"/>
<path d="M1.99999 701C1.99999 687.868 4.58657 674.864 9.61203 662.732C14.6375 650.599 22.0034 639.575 31.2893 630.289C40.5752 621.003 51.5991 613.638 63.7316 608.612C75.8642 603.587 88.8678 601 102 601L102 651C95.4339 651 88.9321 652.293 82.8658 654.806C76.7995 657.319 71.2876 661.002 66.6447 665.645C62.0017 670.288 58.3187 675.8 55.806 681.866C53.2933 687.932 52 694.434 52 701L1.99999 701Z" fill="white"/>
<rect x="899" y="-1" width="101" height="102" fill="#F57EDB"/>
<rect x="700" y="-2" width="101" height="102" fill="#F57EDB"/>
<rect x="500" y="-2" width="101" height="102" fill="#F57EDB"/>
<path d="M300 -2H401V100H300V-2Z" fill="#F57EDB"/>
<rect x="-1" width="101" height="100" fill="#F57EDB"/>
<path d="M1098.99 0L1100.26 99.992L1000.26 101.255L1098.99 0Z" fill="#F7E96D"/>
<path d="M1098.63 1.62769L1198.63 1.62769V101.628L1098.63 1.62769Z" fill="#F7E96D"/>
<path d="M803 0L803 100L703 100L803 0Z" fill="#F7E96D"/>
<rect x="401" width="100" height="10" transform="rotate(90 401 0)" fill="#3B8E34"/>
<rect x="381" width="100" height="10" transform="rotate(90 381 0)" fill="#3B8E34"/>
<rect x="361" width="100" height="10" transform="rotate(90 361 0)" fill="#3B8E34"/>
<rect x="341" width="100" height="10" transform="rotate(90 341 0)" fill="#3B8E34"/>
<rect x="321" width="100" height="10" transform="rotate(90 321 0)" fill="#3B8E34"/>
<path d="M100 0C100 13.1322 97.4134 26.1358 92.388 38.2683C87.3625 50.4009 79.9965 61.4248 70.7107 70.7107C61.4248 79.9965 50.4009 87.3625 38.2683 92.388C26.1358 97.4134 13.1322 100 -7.62939e-06 100L0 50C6.56609 50 13.0679 48.7067 19.1342 46.194C25.2004 43.6812 30.7124 39.9983 35.3553 35.3553C39.9983 30.7124 43.6812 25.2005 46.194 19.1342C48.7067 13.0679 50 6.56609 50 0L100 0Z" fill="white"/>
<path d="M1003 0C1003 26.5216 992.464 51.957 973.711 70.7107C954.957 89.4643 929.522 100 903 100C876.478 100 851.043 89.4643 832.289 70.7107C813.536 51.957 803 26.5217 803 1.52588e-05L853 7.62939e-06C853 13.2608 858.268 25.9785 867.645 35.3553C877.021 44.7322 889.739 50 903 50C916.261 50 928.979 44.7322 938.355 35.3553C947.732 25.9785 953 13.2608 953 0L1003 0Z" fill="white"/>
</svg>
