<svg width="24" height="27" viewBox="0 0 24 27" fill="none" xmlns="http://www.w3.org/2000/svg">
<path d="M16.1986 3H8.62328C7.73048 3 7 3.80156 7 4.78125V20.2188C7 21.1984 7.73048 22 8.62328 22H16.1986C17.0914 22 17.8219 21.1984 17.8219 20.2188V4.78125C17.8219 3.80156 17.0914 3 16.1986 3ZM10.2466 3.89062H14.5753V4.48438H10.2466V3.89062ZM12.4109 20.8125C12.1239 20.8125 11.8487 20.6874 11.6457 20.4647C11.4428 20.242 11.3287 19.9399 11.3287 19.625C11.3287 19.3101 11.4428 19.008 11.6457 18.7853C11.8487 18.5626 12.1239 18.4375 12.4109 18.4375C12.6979 18.4375 12.9732 18.5626 13.1762 18.7853C13.3791 19.008 13.4931 19.3101 13.4931 19.625C13.4931 19.9399 13.3791 20.242 13.1762 20.4647C12.9732 20.6874 12.6979 20.8125 12.4109 20.8125ZM16.7397 17.25H8.08219V5.375H16.7397V17.25Z" fill="black"/>
</svg>
