<svg width="14" height="14" viewBox="0 0 14 14" fill="none" xmlns="http://www.w3.org/2000/svg">
<path d="M9.44917 1.59473H5.03024C4.50944 1.59473 4.08333 2.02084 4.08333 2.54164V10.7482C4.08333 11.269 4.50944 11.6951 5.03024 11.6951H9.44917C9.96997 11.6951 10.3961 11.269 10.3961 10.7482V2.54164C10.3961 2.02084 9.96997 1.59473 9.44917 1.59473ZM5.97715 2.06818H8.50226V2.38382H5.97715V2.06818ZM7.23971 11.0639C7.07228 11.0639 6.91171 10.9973 6.79333 10.879C6.67494 10.7606 6.60843 10.6 6.60843 10.4326C6.60843 10.2652 6.67494 10.1046 6.79333 9.9862C6.91171 9.86782 7.07228 9.80131 7.23971 9.80131C7.40713 9.80131 7.5677 9.86782 7.68608 9.9862C7.80447 10.1046 7.87098 10.2652 7.87098 10.4326C7.87098 10.6 7.80447 10.7606 7.68608 10.879C7.5677 10.9973 7.40713 11.0639 7.23971 11.0639ZM9.76481 9.17003H4.7146V2.85728H9.76481V9.17003Z" fill="white"/>
</svg>
