<svg width="200" height="50" viewBox="0 0 200 50" fill="none" xmlns="http://www.w3.org/2000/svg">
<path d="M0 0L50 2.78181e-06L50 50L0 0Z" fill="#9818FC"/>
<path d="M50 50L0 50L4.37114e-06 -4.37114e-06L50 50Z" fill="#F57EDB"/>
<path d="M38.868 24.198H41.205V29.499C40.521 30.0437 39.723 30.4617 38.811 30.753C37.899 31.0443 36.9617 31.19 35.999 31.19C34.6437 31.19 33.4213 30.8987 32.332 30.316C31.2427 29.7207 30.3877 28.9037 29.767 27.865C29.1463 26.8263 28.836 25.6547 28.836 24.35C28.836 23.0453 29.1463 21.8737 29.767 20.835C30.3877 19.7963 31.2427 18.9857 32.332 18.403C33.434 17.8077 34.669 17.51 36.037 17.51C37.1517 17.51 38.165 17.6937 39.077 18.061C39.989 18.4283 40.7553 18.9667 41.376 19.676L39.818 21.196C38.8047 20.1827 37.5823 19.676 36.151 19.676C35.2137 19.676 34.3777 19.8723 33.643 20.265C32.921 20.6577 32.351 21.2087 31.933 21.918C31.5277 22.6273 31.325 23.438 31.325 24.35C31.325 25.2367 31.5277 26.0347 31.933 26.744C32.351 27.4533 32.921 28.0107 33.643 28.416C34.3777 28.8213 35.2073 29.024 36.132 29.024C37.1707 29.024 38.0827 28.796 38.868 28.34V24.198Z" fill="white"/>
<path d="M59.3778 28.929V31H49.4028V17.7H59.1118V19.771H51.8728V23.229H58.2948V25.262H51.8728V28.929H59.3778ZM73.2286 31.19C71.8733 31.19 70.6509 30.8987 69.5616 30.316C68.4723 29.7207 67.6173 28.9037 66.9966 27.865C66.3759 26.8137 66.0656 25.642 66.0656 24.35C66.0656 23.058 66.3759 21.8927 66.9966 20.854C67.6173 19.8027 68.4723 18.9857 69.5616 18.403C70.6509 17.8077 71.8733 17.51 73.2286 17.51C74.5839 17.51 75.8063 17.8077 76.8956 18.403C77.9849 18.9857 78.8399 19.7963 79.4606 20.835C80.0813 21.8737 80.3916 23.0453 80.3916 24.35C80.3916 25.6547 80.0813 26.8263 79.4606 27.865C78.8399 28.9037 77.9849 29.7207 76.8956 30.316C75.8063 30.8987 74.5839 31.19 73.2286 31.19ZM73.2286 29.024C74.1153 29.024 74.9133 28.8277 75.6226 28.435C76.3319 28.0297 76.8893 27.4723 77.2946 26.763C77.6999 26.041 77.9026 25.2367 77.9026 24.35C77.9026 23.4633 77.6999 22.6653 77.2946 21.956C76.8893 21.234 76.3319 20.6767 75.6226 20.284C74.9133 19.8787 74.1153 19.676 73.2286 19.676C72.3419 19.676 71.5439 19.8787 70.8346 20.284C70.1253 20.6767 69.5679 21.234 69.1626 21.956C68.7573 22.6653 68.5546 23.4633 68.5546 24.35C68.5546 25.2367 68.7573 26.041 69.1626 26.763C69.5679 27.4723 70.1253 28.0297 70.8346 28.435C71.5439 28.8277 72.3419 29.024 73.2286 29.024ZM87.3015 24.73H92.5265V26.706H87.3015V24.73ZM100.293 17.7H106.107C107.526 17.7 108.786 17.9787 109.888 18.536C110.99 19.0807 111.845 19.8597 112.453 20.873C113.061 21.8737 113.365 23.0327 113.365 24.35C113.365 25.6673 113.061 26.8327 112.453 27.846C111.845 28.8467 110.99 29.6257 109.888 30.183C108.786 30.7277 107.526 31 106.107 31H100.293V17.7ZM105.993 28.91C106.968 28.91 107.823 28.7263 108.558 28.359C109.305 27.979 109.875 27.447 110.268 26.763C110.673 26.0663 110.876 25.262 110.876 24.35C110.876 23.438 110.673 22.64 110.268 21.956C109.875 21.2593 109.305 20.7273 108.558 20.36C107.823 19.98 106.968 19.79 105.993 19.79H102.763V28.91H105.993ZM130.905 28.929V31H120.93V17.7H130.639V19.771H123.4V23.229H129.822V25.262H123.4V28.929H130.905ZM142.722 31.19C141.696 31.19 140.702 31.0443 139.739 30.753C138.789 30.4617 138.035 30.0753 137.478 29.594L138.333 27.675C138.878 28.1057 139.543 28.4603 140.328 28.739C141.126 29.005 141.924 29.138 142.722 29.138C143.71 29.138 144.445 28.9797 144.926 28.663C145.42 28.3463 145.667 27.9283 145.667 27.409C145.667 27.029 145.528 26.7187 145.249 26.478C144.983 26.2247 144.641 26.0283 144.223 25.889C143.805 25.7497 143.235 25.5913 142.513 25.414C141.5 25.1733 140.676 24.9327 140.043 24.692C139.422 24.4513 138.884 24.0777 138.428 23.571C137.985 23.0517 137.763 22.355 137.763 21.481C137.763 20.7463 137.959 20.0813 138.352 19.486C138.757 18.878 139.359 18.3967 140.157 18.042C140.968 17.6873 141.956 17.51 143.121 17.51C143.932 17.51 144.73 17.6113 145.515 17.814C146.3 18.0167 146.978 18.308 147.548 18.688L146.769 20.607C146.186 20.265 145.578 20.0053 144.945 19.828C144.312 19.6507 143.697 19.562 143.102 19.562C142.127 19.562 141.398 19.7267 140.917 20.056C140.448 20.3853 140.214 20.8223 140.214 21.367C140.214 21.747 140.347 22.0573 140.613 22.298C140.892 22.5387 141.24 22.7287 141.658 22.868C142.076 23.0073 142.646 23.1657 143.368 23.343C144.356 23.571 145.167 23.8117 145.8 24.065C146.433 24.3057 146.972 24.6793 147.415 25.186C147.871 25.6927 148.099 26.3767 148.099 27.238C148.099 27.9727 147.896 28.6377 147.491 29.233C147.098 29.8283 146.497 30.3033 145.686 30.658C144.875 31.0127 143.887 31.19 142.722 31.19ZM155.488 17.7H157.958V31H155.488V17.7ZM175.577 24.198H177.914V29.499C177.23 30.0437 176.432 30.4617 175.52 30.753C174.608 31.0443 173.671 31.19 172.708 31.19C171.353 31.19 170.131 30.8987 169.041 30.316C167.952 29.7207 167.097 28.9037 166.476 27.865C165.856 26.8263 165.545 25.6547 165.545 24.35C165.545 23.0453 165.856 21.8737 166.476 20.835C167.097 19.7963 167.952 18.9857 169.041 18.403C170.143 17.8077 171.378 17.51 172.746 17.51C173.861 17.51 174.874 17.6937 175.786 18.061C176.698 18.4283 177.465 18.9667 178.085 19.676L176.527 21.196C175.514 20.1827 174.292 19.676 172.86 19.676C171.923 19.676 171.087 19.8723 170.352 20.265C169.63 20.6577 169.06 21.2087 168.642 21.918C168.237 22.6273 168.034 23.438 168.034 24.35C168.034 25.2367 168.237 26.0347 168.642 26.744C169.06 27.4533 169.63 28.0107 170.352 28.416C171.087 28.8213 171.917 29.024 172.841 29.024C173.88 29.024 174.792 28.796 175.577 28.34V24.198ZM197.93 17.7V31H195.897L188.563 21.994V31H186.112V17.7H188.145L195.479 26.706V17.7H197.93Z" fill="black"/>
</svg>
