<svg width="19" height="20" viewBox="0 0 19 20" fill="none" xmlns="http://www.w3.org/2000/svg">
<path d="M1.33 1.38262C2.51664e-07 2.7784 0 5.01034 0 9.48081V10.2709C0 14.7348 2.51664e-07 16.9667 1.33 18.3691C2.67267 19.7517 4.81967 19.7517 9.12 19.7517H9.88C14.174 19.7517 16.321 19.7517 17.67 18.3691C19 16.9733 19 14.7413 19 10.2709V9.48081C19 5.01693 19 2.78499 17.67 1.38262C16.3273 2.6162e-07 14.1803 0 9.88 0H9.12C4.826 0 2.679 2.6162e-07 1.33 1.38262ZM3.20467 6.01109H5.38333C5.453 9.77708 7.049 11.3704 8.31567 11.6996V6.01109H10.3613V9.25695C11.609 9.11869 12.9263 7.63732 13.3697 6.00451H15.409C15.2426 6.84968 14.9104 7.65012 14.4331 8.35585C13.9558 9.06159 13.3437 9.65746 12.635 10.1063C13.4261 10.5154 14.1247 11.0943 14.6847 11.8048C15.2448 12.5152 15.6535 13.3411 15.884 14.2278H13.6357C13.1543 12.6674 11.951 11.456 10.3613 11.2914V14.2278H10.108C5.776 14.2278 3.306 11.1465 3.20467 6.01109Z" fill="black"/>
</svg>
