<svg width="20" height="22" viewBox="0 0 20 22" fill="none" xmlns="http://www.w3.org/2000/svg">
<path d="M10 0C15.523 0 20 4.91268 20 10.9732C20 17.0336 15.523 21.9463 10 21.9463C8.23277 21.9496 6.4966 21.4364 4.97002 20.4594L0.00401546 21.9463L1.35602 16.4948C0.464974 14.8192 -0.00308163 12.9132 1.52687e-05 10.9732C1.52687e-05 4.91268 4.47702 0 10 0ZM6.59202 5.81577L6.39201 5.82455C6.26271 5.83433 6.13636 5.8716 6.02002 5.93428C5.91159 6.00178 5.81258 6.08604 5.72602 6.18447C5.60602 6.30847 5.53802 6.416 5.46502 6.52025C5.09514 7.04795 4.89599 7.69582 4.89902 8.36154C4.90102 8.89923 5.02902 9.42265 5.22902 9.91205C5.63802 10.9018 6.31102 11.9498 7.19902 12.9209C7.41302 13.1546 7.62302 13.3894 7.84902 13.6078C8.95245 14.6737 10.2673 15.4425 11.689 15.8529L12.257 15.9484C12.442 15.9594 12.627 15.944 12.813 15.9341C13.1042 15.9173 13.3885 15.8308 13.646 15.6806C13.7769 15.6064 13.9047 15.5258 14.029 15.4392C14.029 15.4392 14.0714 15.4078 14.154 15.3405C14.289 15.2307 14.372 15.1528 14.484 15.0244C14.568 14.9293 14.638 14.8189 14.694 14.6931C14.772 14.5142 14.85 14.1729 14.882 13.8887C14.906 13.6715 14.899 13.5529 14.896 13.4794C14.892 13.362 14.803 13.2402 14.706 13.1886L14.124 12.9022C14.124 12.9022 13.254 12.4864 12.722 12.2208C12.6663 12.1942 12.6067 12.179 12.546 12.1758C12.4776 12.168 12.4084 12.1763 12.3432 12.2004C12.278 12.2244 12.2182 12.2636 12.168 12.3152C12.163 12.313 12.096 12.3755 11.373 13.3368C11.3315 13.398 11.2744 13.4442 11.2088 13.4696C11.1433 13.495 11.0723 13.4984 11.005 13.4794C10.9398 13.4604 10.876 13.4362 10.814 13.407C10.69 13.3499 10.647 13.328 10.562 13.2885C9.98789 13.0141 9.45646 12.6427 8.98702 12.1879C8.86102 12.0672 8.74402 11.9355 8.62402 11.8082C8.23063 11.3948 7.88777 10.9271 7.60401 10.4168L7.54501 10.3126C7.50328 10.2421 7.46905 10.1666 7.44302 10.0876C7.40502 9.92632 7.50402 9.79683 7.50402 9.79683C7.50402 9.79683 7.74702 9.50495 7.86002 9.34693C7.97002 9.19331 8.06301 9.04407 8.12302 8.93763C8.24102 8.72914 8.27802 8.51517 8.21602 8.34947C7.93602 7.59891 7.64668 6.85237 7.34802 6.10985C7.28902 5.96281 7.11402 5.85747 6.95502 5.83662C6.90102 5.8293 6.84701 5.82345 6.79302 5.81906C6.65874 5.81061 6.52411 5.81208 6.39002 5.82345L6.59202 5.81577Z" fill="black"/>
</svg>
