<svg width="1200" height="800" viewBox="0 0 1200 800" fill="none" xmlns="http://www.w3.org/2000/svg">
<path d="M899 298V398H799L899 298Z" fill="#3B8E34"/>
<rect x="1099" y="600" width="100" height="100" fill="#3B8E34"/>
<path d="M1199.05 808.994L1099.05 810.049L1098 710.055L1199.05 808.994Z" fill="#3B8E34"/>
<rect x="999" y="710" width="100" height="100" fill="#3B8E34"/>
<path d="M997 200V300H897L997 200Z" fill="#3B8E34"/>
<rect x="799" y="700" width="100" height="100" fill="#3B8E34"/>
<rect x="1099" y="200" width="100" height="100" fill="#3B8E34"/>
<rect x="897" y="298" width="100" height="100" fill="#3B8E34"/>
<rect x="999" y="300" width="100" height="100" fill="#3B8E34"/>
<path d="M999 598H1099V698L999 598Z" fill="#3B8E34"/>
<rect x="652.711" y="700" width="100" height="100" rx="20" transform="rotate(45 652.711 700)" fill="#F57EDB"/>
<rect x="753.355" y="313" width="50" height="50" rx="10" transform="rotate(45 753.355 313)" fill="#F57EDB"/>
<path d="M524 498C524 511.807 512.807 523 499 523C485.193 523 474 511.807 474 498C474 484.193 485.193 473 499 473C512.807 473 524 484.193 524 498ZM486.5 498C486.5 504.904 492.096 510.5 499 510.5C505.904 510.5 511.5 504.904 511.5 498C511.5 491.096 505.904 485.5 499 485.5C492.096 485.5 486.5 491.096 486.5 498Z" fill="#F57EDB"/>
<path d="M1103.37 454.603C1121.52 473.593 1135.74 495.97 1145.24 520.458C1154.74 544.945 1159.32 571.064 1158.72 597.321C1158.12 623.579 1152.36 649.461 1141.76 673.492C1131.16 697.522 1115.93 719.228 1096.94 737.373C1077.95 755.517 1055.57 769.743 1031.08 779.239C1006.59 788.735 980.475 793.315 954.218 792.718C927.96 792.12 902.077 786.356 878.047 775.756C854.017 765.155 832.31 749.925 814.166 730.936L886.468 661.853C895.54 671.347 906.393 678.962 918.408 684.263C930.423 689.563 943.365 692.445 956.494 692.744C969.622 693.042 982.682 690.752 994.925 686.004C1007.17 681.256 1018.36 674.143 1027.85 665.071C1037.35 655.999 1044.96 645.146 1050.26 633.13C1055.56 621.115 1058.44 608.174 1058.74 595.045C1059.04 581.916 1056.75 568.857 1052 556.614C1047.26 544.37 1040.14 533.181 1031.07 523.686L1103.37 454.603Z" fill="#9818FC"/>
<path d="M1199 400C1172.74 400 1146.73 394.827 1122.46 384.776C1098.2 374.725 1076.15 359.993 1057.58 341.421C1039.01 322.85 1024.28 300.802 1014.22 276.537C1004.17 252.272 999 226.264 999 200C999 173.736 1004.17 147.728 1014.22 123.463C1024.28 99.1982 1039.01 77.1504 1057.58 58.5786C1076.15 40.0069 1098.2 25.275 1122.46 15.2241C1146.73 5.17315 1172.74 4.02072e-07 1199 2.38498e-06L1199 100C1185.87 100 1172.86 102.587 1160.73 107.612C1148.6 112.638 1137.58 120.003 1128.29 129.289C1119 138.575 1111.64 149.599 1106.61 161.732C1101.59 173.864 1099 186.868 1099 200C1099 213.132 1101.59 226.136 1106.61 238.268C1111.64 250.401 1119 261.425 1128.29 270.711C1137.58 279.997 1148.6 287.362 1160.73 292.388C1172.86 297.413 1185.87 300 1199 300L1199 400Z" fill="#F57EDB"/>
<rect x="999" y="263" width="200" height="200" rx="40" transform="rotate(45 999 263)" fill="#F6E96D"/>
<path d="M1099 198L1099 298L999 198L1099 198Z" fill="#9818FC"/>
<path d="M1099 198L1099 100L999 198L1099 198Z" fill="#9818FC"/>
<path d="M602 349.711L672.711 279V420.421L602 349.711Z" fill="#F7E96D"/>
<path d="M602.5 500H702.5V600H602.5V500Z" fill="#F57EDB"/>
<path d="M897 503H997V603H897V503Z" fill="#F57EDB"/>
<rect x="702" y="400" width="97" height="10" fill="#9818FC"/>
<rect x="702" y="416.25" width="97" height="10" fill="#9818FC"/>
<rect x="702" y="432.5" width="97" height="10" fill="#9818FC"/>
<rect x="702" y="448.75" width="97" height="10" fill="#9818FC"/>
<rect x="702" y="465" width="97" height="10" fill="#9818FC"/>
<rect x="702" y="481.25" width="97" height="10" fill="#9818FC"/>
<rect x="790.25" y="603" width="97" height="10" transform="rotate(90 790.25 603)" fill="#9818FC"/>
<rect x="774" y="603" width="97" height="10" transform="rotate(90 774 603)" fill="#9818FC"/>
<rect x="757.75" y="603" width="97" height="10" transform="rotate(90 757.75 603)" fill="#9818FC"/>
<rect x="741.5" y="603" width="97" height="10" transform="rotate(90 741.5 603)" fill="#9818FC"/>
<rect x="725.25" y="603" width="97" height="10" transform="rotate(90 725.25 603)" fill="#9818FC"/>
<rect x="709" y="603" width="97" height="10" transform="rotate(90 709 603)" fill="#9818FC"/>
<path d="M830 401.193C843.26 401.142 855.998 406.36 865.411 415.701C874.824 425.042 880.141 437.739 880.192 451C880.243 464.26 875.024 476.998 865.684 486.411C856.343 495.824 843.646 501.141 830.385 501.192L830.289 476.192C836.919 476.167 843.268 473.508 847.938 468.802C852.608 464.095 855.218 457.726 855.192 451.096C855.167 444.466 852.508 438.117 847.802 433.447C843.095 428.776 836.726 426.167 830.096 426.192L830 401.193Z" fill="#F57EDB"/>
<path d="M865 601C851.739 601 839.021 595.732 829.645 586.355C820.268 576.979 815 564.261 815 551C815 537.739 820.268 525.021 829.645 515.645C839.021 506.268 851.739 501 865 501L865 526C858.37 526 852.011 528.634 847.322 533.322C842.634 538.011 840 544.37 840 551C840 557.63 842.634 563.989 847.322 568.678C852.011 573.366 858.37 576 865 576L865 601Z" fill="#3B8E34"/>
<path d="M804.183 501C804.232 514.26 799.01 526.997 789.668 536.408C780.326 545.82 767.627 551.134 754.367 551.183C741.106 551.232 728.369 546.01 718.958 536.668C709.547 527.326 704.232 514.627 704.184 501.367L729.183 501.275C729.208 507.905 731.865 514.254 736.571 518.926C741.276 523.597 747.645 526.207 754.275 526.183C760.905 526.159 767.254 523.501 771.926 518.796C776.597 514.09 779.207 507.722 779.183 501.091L804.183 501Z" fill="#9818FC"/>
<path d="M699 601C699 587.739 704.268 575.021 713.645 565.645C723.021 556.268 735.739 551 749 551C762.261 551 774.979 556.268 784.355 565.645C793.732 575.021 799 587.739 799 601L774 601C774 594.37 771.366 588.011 766.678 583.322C761.989 578.634 755.63 576 749 576C742.37 576 736.011 578.634 731.322 583.322C726.634 588.011 724 594.37 724 601L699 601Z" fill="#3B8E34"/>
<path d="M741.238 582.149L907.522 630.622L782.402 750.392L741.238 582.149Z" fill="#F7E96D"/>
</svg>
