<svg width="19" height="20" viewBox="0 0 19 20" fill="none" xmlns="http://www.w3.org/2000/svg">
<path d="M1.33002 1.50689C1.55105e-05 2.90267 1.52588e-05 5.13461 1.52588e-05 9.60507V10.3951C1.52588e-05 14.859 1.55105e-05 17.091 1.33002 18.4933C2.67268 19.8759 4.81968 19.8759 9.12002 19.8759H9.88002C14.174 19.8759 16.321 19.8759 17.67 18.4933C19 17.0975 19 14.8656 19 10.3951V9.60507C19 5.14119 19 2.90925 17.67 1.50689C16.3273 0.124268 14.1803 0.124268 9.88002 0.124268H9.12002C4.82602 0.124268 2.67902 0.124268 1.33002 1.50689ZM3.20468 6.13536H5.38335C5.45302 9.90135 7.04902 11.4946 8.31568 11.8238V6.13536H10.3613V9.38122C11.609 9.24296 12.9263 7.76158 13.3697 6.12878H15.409C15.2426 6.97395 14.9104 7.77439 14.4331 8.48012C13.9558 9.18585 13.3437 9.78173 12.635 10.2305C13.4261 10.6397 14.1247 11.2186 14.6847 11.929C15.2448 12.6395 15.6535 13.4653 15.884 14.3521H13.6357C13.1543 12.7917 11.951 11.5802 10.3613 11.4156V14.3521H10.108C5.77602 14.3521 3.30602 11.2708 3.20468 6.13536Z" fill="white"/>
</svg>
