<svg width="200" height="50" viewBox="0 0 200 50" fill="none" xmlns="http://www.w3.org/2000/svg">
<path d="M0 0L50 2.78181e-06L50 50L0 0Z" fill="#9818FC"/>
<path d="M50 50L0 50L4.37114e-06 -4.37114e-06L50 50Z" fill="#F57EDB"/>
<path d="M35.999 31.19C34.9603 31.19 34.004 31.0253 33.13 30.696C32.2687 30.354 31.515 29.879 30.869 29.271C30.223 28.6503 29.7227 27.922 29.368 27.086C29.0133 26.25 28.836 25.338 28.836 24.35C28.836 23.362 29.0133 22.45 29.368 21.614C29.7227 20.778 30.223 20.056 30.869 19.448C31.5277 18.8273 32.294 18.3523 33.168 18.023C34.042 17.681 34.9983 17.51 36.037 17.51C37.1643 17.51 38.1777 17.6937 39.077 18.061C39.989 18.4283 40.7553 18.9667 41.376 19.676L39.818 21.196C39.2987 20.6767 38.735 20.2967 38.127 20.056C37.5317 19.8027 36.873 19.676 36.151 19.676C35.4543 19.676 34.8083 19.79 34.213 20.018C33.6177 20.246 33.1047 20.569 32.674 20.987C32.2433 21.405 31.9077 21.899 31.667 22.469C31.439 23.039 31.325 23.666 31.325 24.35C31.325 25.0213 31.439 25.642 31.667 26.212C31.9077 26.782 32.2433 27.2823 32.674 27.713C33.1047 28.131 33.6113 28.454 34.194 28.682C34.7767 28.91 35.4227 29.024 36.132 29.024C36.7907 29.024 37.424 28.9227 38.032 28.72C38.6527 28.5047 39.2417 28.15 39.799 27.656L41.205 29.499C40.5083 30.0563 39.6977 30.4807 38.773 30.772C37.861 31.0507 36.9363 31.19 35.999 31.19ZM38.868 29.176V24.198H41.205V29.499L38.868 29.176Z" fill="white"/>
<path d="M51.6828 23.229H58.2948V25.262H51.6828V23.229ZM51.8728 28.929H59.3778V31H49.4028V17.7H59.1118V19.771H51.8728V28.929ZM73.3033 31.19C72.2646 31.19 71.3083 31.019 70.4343 30.677C69.5603 30.335 68.8003 29.86 68.1543 29.252C67.5083 28.6313 67.0079 27.9093 66.6533 27.086C66.2986 26.25 66.1213 25.338 66.1213 24.35C66.1213 23.362 66.2986 22.4563 66.6533 21.633C67.0079 20.797 67.5083 20.075 68.1543 19.467C68.8003 18.8463 69.5603 18.365 70.4343 18.023C71.3083 17.681 72.2583 17.51 73.2843 17.51C74.3229 17.51 75.2729 17.681 76.1343 18.023C77.0083 18.365 77.7683 18.8463 78.4143 19.467C79.0603 20.075 79.5606 20.797 79.9153 21.633C80.2699 22.4563 80.4473 23.362 80.4473 24.35C80.4473 25.338 80.2699 26.25 79.9153 27.086C79.5606 27.922 79.0603 28.644 78.4143 29.252C77.7683 29.86 77.0083 30.335 76.1343 30.677C75.2729 31.019 74.3293 31.19 73.3033 31.19ZM73.2843 29.024C73.9556 29.024 74.5763 28.91 75.1463 28.682C75.7163 28.454 76.2103 28.131 76.6283 27.713C77.0463 27.2823 77.3693 26.7883 77.5973 26.231C77.8379 25.661 77.9583 25.034 77.9583 24.35C77.9583 23.666 77.8379 23.0453 77.5973 22.488C77.3693 21.918 77.0463 21.424 76.6283 21.006C76.2103 20.5753 75.7163 20.246 75.1463 20.018C74.5763 19.79 73.9556 19.676 73.2843 19.676C72.6129 19.676 71.9923 19.79 71.4223 20.018C70.8649 20.246 70.3709 20.5753 69.9403 21.006C69.5223 21.424 69.1929 21.918 68.9523 22.488C68.7243 23.0453 68.6103 23.666 68.6103 24.35C68.6103 25.0213 68.7243 25.642 68.9523 26.212C69.1929 26.782 69.5223 27.2823 69.9403 27.713C70.3583 28.131 70.8523 28.454 71.4223 28.682C71.9923 28.91 72.6129 29.024 73.2843 29.024ZM87.3572 26.706V24.73H92.5822V26.706H87.3572ZM100.349 31V17.7H106.163C107.607 17.7 108.873 17.9787 109.963 18.536C111.052 19.0933 111.901 19.866 112.509 20.854C113.117 21.842 113.421 23.0073 113.421 24.35C113.421 25.68 113.117 26.8453 112.509 27.846C111.901 28.834 111.052 29.6067 109.963 30.164C108.873 30.7213 107.607 31 106.163 31H100.349ZM102.819 28.91H106.049C107.049 28.91 107.911 28.72 108.633 28.34C109.367 27.96 109.931 27.428 110.324 26.744C110.729 26.06 110.932 25.262 110.932 24.35C110.932 23.4253 110.729 22.6273 110.324 21.956C109.931 21.272 109.367 20.74 108.633 20.36C107.911 19.98 107.049 19.79 106.049 19.79H102.819V28.91ZM123.266 23.229H129.878V25.262H123.266V23.229ZM123.456 28.929H130.961V31H120.986V17.7H130.695V19.771H123.456V28.929ZM142.778 31.19C141.739 31.19 140.745 31.0443 139.795 30.753C138.845 30.449 138.091 30.0627 137.534 29.594L138.389 27.675C138.921 28.093 139.579 28.4413 140.365 28.72C141.15 28.9987 141.954 29.138 142.778 29.138C143.474 29.138 144.038 29.062 144.469 28.91C144.899 28.758 145.216 28.5553 145.419 28.302C145.621 28.036 145.723 27.7383 145.723 27.409C145.723 27.0037 145.577 26.6807 145.286 26.44C144.994 26.1867 144.614 25.9903 144.146 25.851C143.69 25.699 143.177 25.5597 142.607 25.433C142.049 25.3063 141.486 25.1607 140.916 24.996C140.358 24.8187 139.845 24.597 139.377 24.331C138.921 24.0523 138.547 23.685 138.256 23.229C137.964 22.773 137.819 22.1903 137.819 21.481C137.819 20.759 138.009 20.1003 138.389 19.505C138.781 18.897 139.37 18.4157 140.156 18.061C140.954 17.6937 141.961 17.51 143.177 17.51C143.975 17.51 144.766 17.6113 145.552 17.814C146.337 18.0167 147.021 18.308 147.604 18.688L146.825 20.607C146.229 20.2523 145.615 19.9927 144.982 19.828C144.348 19.6507 143.74 19.562 143.158 19.562C142.474 19.562 141.916 19.6443 141.486 19.809C141.068 19.9737 140.757 20.189 140.555 20.455C140.365 20.721 140.27 21.025 140.27 21.367C140.27 21.7723 140.409 22.1017 140.688 22.355C140.979 22.5957 141.353 22.7857 141.809 22.925C142.277 23.0643 142.797 23.2037 143.367 23.343C143.937 23.4697 144.5 23.6153 145.058 23.78C145.628 23.9447 146.141 24.16 146.597 24.426C147.065 24.692 147.439 25.053 147.718 25.509C148.009 25.965 148.155 26.5413 148.155 27.238C148.155 27.9473 147.958 28.606 147.566 29.214C147.186 29.8093 146.597 30.2907 145.799 30.658C145.001 31.0127 143.994 31.19 142.778 31.19ZM155.544 31V17.7H158.014V31H155.544ZM172.764 31.19C171.725 31.19 170.769 31.0253 169.895 30.696C169.034 30.354 168.28 29.879 167.634 29.271C166.988 28.6503 166.488 27.922 166.133 27.086C165.778 26.25 165.601 25.338 165.601 24.35C165.601 23.362 165.778 22.45 166.133 21.614C166.488 20.778 166.988 20.056 167.634 19.448C168.293 18.8273 169.059 18.3523 169.933 18.023C170.807 17.681 171.763 17.51 172.802 17.51C173.929 17.51 174.943 17.6937 175.842 18.061C176.754 18.4283 177.52 18.9667 178.141 19.676L176.583 21.196C176.064 20.6767 175.5 20.2967 174.892 20.056C174.297 19.8027 173.638 19.676 172.916 19.676C172.219 19.676 171.573 19.79 170.978 20.018C170.383 20.246 169.87 20.569 169.439 20.987C169.008 21.405 168.673 21.899 168.432 22.469C168.204 23.039 168.09 23.666 168.09 24.35C168.09 25.0213 168.204 25.642 168.432 26.212C168.673 26.782 169.008 27.2823 169.439 27.713C169.87 28.131 170.376 28.454 170.959 28.682C171.542 28.91 172.188 29.024 172.897 29.024C173.556 29.024 174.189 28.9227 174.797 28.72C175.418 28.5047 176.007 28.15 176.564 27.656L177.97 29.499C177.273 30.0563 176.463 30.4807 175.538 30.772C174.626 31.0507 173.701 31.19 172.764 31.19ZM175.633 29.176V24.198H177.97V29.499L175.633 29.176ZM186.168 31V17.7H188.201L196.542 27.941H195.535V17.7H197.986V31H195.953L187.612 20.759H188.619V31H186.168Z" fill="black"/>
</svg>
