<svg width="12" height="13" viewBox="0 0 12 13" fill="none" xmlns="http://www.w3.org/2000/svg">
<path d="M2 10.8334C1.725 10.8334 1.48967 10.7274 1.294 10.5155C1.09833 10.3035 1.00033 10.0484 1 9.75008V3.25008C1 2.95216 1.098 2.69722 1.294 2.48525C1.49 2.27328 1.72533 2.16711 2 2.16675H10C10.275 2.16675 10.5105 2.27291 10.7065 2.48525C10.9025 2.69758 11.0003 2.95253 11 3.25008V9.75008C11 10.048 10.9022 10.3031 10.7065 10.5155C10.5108 10.7278 10.2753 10.8338 10 10.8334H2ZM6 7.04175L2 4.33341V9.75008H10V4.33341L6 7.04175ZM6 5.95841L10 3.25008H2L6 5.95841ZM2 4.33341V3.25008V9.75008V4.33341Z" fill="white"/>
</svg>
