<svg width="24" height="27" viewBox="0 0 24 27" fill="none" xmlns="http://www.w3.org/2000/svg">
<path d="M4 21.9462C3.45 21.9462 2.97933 21.7315 2.588 21.3021C2.19667 20.8727 2.00067 20.3558 2 19.7516V6.58379C2 5.98027 2.196 5.4638 2.588 5.03438C2.98 4.60497 3.45067 4.38989 4 4.38916H20C20.55 4.38916 21.021 4.60423 21.413 5.03438C21.805 5.46453 22.0007 5.981 22 6.58379V19.7516C22 20.3551 21.8043 20.8719 21.413 21.3021C21.0217 21.7322 20.5507 21.9469 20 21.9462H4ZM12 14.265L4 8.77842V19.7516H20V8.77842L12 14.265ZM12 12.0704L20 6.58379H4L12 12.0704ZM4 8.77842V6.58379V19.7516V8.77842Z" fill="black"/>
</svg>
