<svg width="22" height="22" viewBox="0 0 22 22" fill="none" xmlns="http://www.w3.org/2000/svg">
<path d="M10.9935 0.166748C8.85086 0.166748 6.75635 0.802112 4.97482 1.99249C3.19328 3.18288 1.80475 4.87481 0.9848 6.85434C0.16485 8.83388 -0.049686 11.0121 0.368321 13.1136C0.786327 15.215 1.8181 17.1453 3.33317 18.6604C4.84824 20.1755 6.77855 21.2073 8.88002 21.6253C10.9815 22.0433 13.1597 21.8287 15.1392 21.0088C17.1188 20.1888 18.8107 18.8003 20.0011 17.0188C21.1915 15.2372 21.8268 13.1427 21.8268 11.0001C21.8268 9.57743 21.5466 8.1687 21.0022 6.85434C20.4578 5.53998 19.6598 4.34573 18.6538 3.33976C17.6479 2.33379 16.4536 1.53581 15.1392 0.991387C13.8249 0.446961 12.4161 0.166748 10.9935 0.166748ZM14.4385 16.5814C14.3981 16.6826 14.3364 16.774 14.2578 16.8494C14.1791 16.9248 14.0852 16.9826 13.9824 17.0187C13.8795 17.0548 13.7702 17.0685 13.6616 17.0589C13.5531 17.0492 13.4478 17.0164 13.353 16.9627L10.4117 14.6769L8.52458 16.4189C8.48077 16.4513 8.42955 16.4721 8.3756 16.4795C8.32165 16.4868 8.26671 16.4806 8.21583 16.4612L8.57766 13.2231L8.58849 13.2328L8.59608 13.1689C8.59608 13.1689 13.8882 8.35025 14.1037 8.1455C14.3226 7.94075 14.25 7.89633 14.25 7.89633C14.263 7.64717 13.8589 7.89633 13.8589 7.89633L6.8465 12.4073L3.92691 11.4128C3.92691 11.4128 3.47841 11.2525 3.43616 10.8982C3.39174 10.5472 3.94099 10.3566 3.94099 10.3566L15.5511 5.74375C15.5511 5.74375 16.5055 5.31908 16.5055 6.02325L14.4385 16.5814Z" fill="black"/>
</svg>
